<?xml version="1.0" encoding="utf-8"?>
<!-- Generator: Adobe Illustrator 16.0.0, SVG Export Plug-In . SVG Version: 6.00 Build 0)  -->
<!DOCTYPE svg PUBLIC "-//W3C//DTD SVG 1.1//EN" "http://www.w3.org/Graphics/SVG/1.1/DTD/svg11.dtd">
<svg version="1.1" id="Layer_1" xmlns="http://www.w3.org/2000/svg" xmlns:xlink="http://www.w3.org/1999/xlink" x="0px" y="0px"
	 width="49px" height="60px" viewBox="0 0 49 60" enable-background="new 0 0 49 60" xml:space="preserve">
<g id="Layer_x0020_1">
	<circle fill="#6B9974" cx="24.5" cy="30" r="24.441"/>
	<g>
		<path fill="#88D197" d="M26.824,24.225h-0.616h-2.111h-0.616c-0.585,0-1.108,0.103-1.568,0.305
			c-0.46,0.202-0.854,0.466-1.18,0.797c-0.326,0.326-0.579,0.704-0.755,1.128l-0.01,0.021l0,0c-0.005,0.005-0.005,0.015-0.011,0.021
			l0,0l-0.01,0.021l0,0l-0.004,0.021l0,0c0,0.005-0.005,0.015-0.005,0.021l0,0c0,0.005-0.005,0.016-0.005,0.021l0,0
			c0,0.005-0.005,0.015-0.005,0.02l-0.005,0.021l0,0l-0.005,0.021l0,0l-0.005,0.021l0,0l-0.004,0.021l0,0
			c0,0.005-0.005,0.015-0.005,0.02l0,0c0,0.005-0.005,0.016-0.005,0.021l0,0l-0.005,0.021l0,0c0,0.005-0.005,0.015-0.005,0.021l0,0
			c0,0.005-0.005,0.016-0.005,0.021l0,0l-0.005,0.021l0,0l-0.005,0.021l0,0c0,0.005-0.005,0.016-0.005,0.021l0,0
			c0,0.005-0.005,0.016-0.005,0.021l0,0c0,0.005-0.005,0.011-0.005,0.021l0,0l-0.005,0.021l0,0l-0.004,0.021l0,0l-0.005,0.021l0,0
			l-0.005,0.021l0,0c0,0.005-0.005,0.01-0.005,0.021l0,0c0,0.005-0.005,0.01-0.005,0.02l-0.005,0.016v0.005l0,0
			c0,0.005-0.005,0.01-0.005,0.021l0,0l0,0c-0.005,0.01-0.005,0.025-0.011,0.036l0,0l0,0c0,0.005-0.005,0.011-0.005,0.021l0,0
			c0,0.005,0,0.01-0.005,0.021c0,0.005,0,0.015-0.005,0.021l0,0l-0.005,0.021c-0.005,0.021-0.005,0.042-0.011,0.062l0,0l0,0
			c0,0.005,0,0.011-0.005,0.021c-0.01,0.057-0.015,0.119-0.021,0.176v0.005l0,0c0,0.005,0,0.01,0,0.021
			c0,0.021-0.005,0.036-0.005,0.057v0.005c-0.005,0.052-0.005,0.108-0.011,0.16l0,0c0,0.021,0,0.036,0,0.057v0.005l0,0
			c0,0.005,0,0.01,0,0.021l0,0v8.119l0,0h3.012V28.37c0-0.165,0.02-0.346,0.062-0.543c0.042-0.197,0.124-0.378,0.253-0.543
			c0.124-0.166,0.3-0.306,0.523-0.419c0.222-0.114,0.507-0.166,0.859-0.166h1.464c0.347,0,0.637,0.057,0.859,0.166
			c0.223,0.114,0.397,0.253,0.521,0.419c0.125,0.166,0.208,0.347,0.255,0.543c0.04,0.197,0.062,0.378,0.062,0.543v7.514h3.012l0,0
			v-8.119l0,0v-0.021l0,0v-0.005c0-0.021,0-0.036,0-0.057l0,0c0-0.052-0.005-0.108-0.01-0.16v-0.005
			c0-0.021-0.006-0.037-0.006-0.057c0-0.005,0-0.01,0-0.021l0,0v-0.005c-0.005-0.057-0.015-0.119-0.02-0.176
			c0-0.005,0-0.01-0.006-0.021l0,0l0,0c-0.005-0.02-0.005-0.041-0.01-0.062c0-0.005,0-0.01-0.006-0.021l0,0
			c0-0.005-0.005-0.016-0.005-0.021c0-0.005-0.005-0.011-0.005-0.021l0,0c0-0.005-0.006-0.01-0.006-0.021l0,0l0,0
			c-0.005-0.011-0.005-0.026-0.011-0.036l0,0l0,0c0-0.005-0.005-0.011-0.005-0.021l0,0V27.03l-0.005-0.016
			c0-0.005-0.005-0.01-0.005-0.02l0,0l-0.006-0.021l0,0l-0.005-0.021l0,0l-0.006-0.021l0,0l-0.005-0.021l0,0
			c0-0.005-0.005-0.016-0.005-0.021l0,0l-0.006-0.021l0,0c0-0.005-0.004-0.011-0.004-0.021l0,0c0-0.004-0.005-0.015-0.005-0.021l0,0
			l-0.006-0.021l0,0l-0.005-0.021l0,0l-0.006-0.021l0,0c0-0.005-0.005-0.016-0.005-0.021l0,0l-0.005-0.021l0,0l-0.005-0.021l0,0
			c0-0.005-0.006-0.015-0.006-0.02l0,0l-0.005-0.021l0,0c0-0.005-0.006-0.016-0.006-0.021l0,0l-0.005-0.021l0,0L30.415,26.6
			l-0.005-0.02l0,0c0-0.005-0.006-0.016-0.006-0.021l0,0l-0.005-0.021l0,0c0-0.005-0.006-0.016-0.006-0.021l0,0
			c-0.005-0.005-0.005-0.016-0.01-0.021l0,0c-0.005-0.005-0.005-0.016-0.01-0.021l0,0l-0.011-0.021
			c-0.176-0.424-0.424-0.802-0.755-1.128c-0.327-0.326-0.72-0.595-1.181-0.797c-0.46-0.202-0.983-0.305-1.568-0.305H26.824z
			 M19.77,27.112c0,0.005,0,0.016-0.005,0.021L19.77,27.112z"/>
	</g>
	<g>
		<path fill="#88D197" d="M14.269,24.137h-0.621h-2.126H10.9c-0.59,0-1.118,0.104-1.583,0.306c-0.466,0.201-0.86,0.471-1.19,0.802
			c-0.332,0.331-0.585,0.709-0.761,1.139l-0.01,0.021l0,0c-0.005,0.005-0.005,0.016-0.011,0.021l0,0l-0.01,0.02l0,0L7.33,26.466l0,0
			c0,0.005-0.005,0.015-0.005,0.021l0,0c0,0.005-0.005,0.015-0.005,0.021l0,0c0,0.005-0.005,0.016-0.005,0.021l-0.005,0.021l0,0
			l-0.005,0.021l0,0L7.298,26.59l0,0l-0.005,0.02l0,0c0,0.005-0.005,0.016-0.005,0.021l0,0c0,0.005-0.005,0.016-0.005,0.021l0,0
			l-0.005,0.021l0,0c0,0.005-0.005,0.016-0.005,0.021l0,0c0,0.005-0.005,0.015-0.005,0.021l0,0l-0.005,0.021l0,0l-0.004,0.02l0,0
			c0,0.005-0.005,0.016-0.005,0.021l0,0c0,0.005-0.005,0.016-0.005,0.021l0,0c0,0.005-0.005,0.015-0.005,0.02l0,0l-0.005,0.021l0,0
			l-0.005,0.02l0,0L7.226,26.88l0,0L7.221,26.9l0,0c0,0.005-0.005,0.01-0.005,0.021l0,0c0,0.005-0.005,0.016-0.005,0.021
			l-0.004,0.015v0.005l0,0c0,0.005-0.005,0.011-0.005,0.021l0,0l0,0c-0.005,0.011-0.005,0.026-0.011,0.036l0,0l0,0
			c0,0.005-0.005,0.011-0.005,0.021l0,0c0,0.005-0.005,0.01-0.005,0.021c0,0.005-0.005,0.015-0.005,0.021l0,0l-0.005,0.021
			c-0.005,0.02-0.005,0.041-0.011,0.062l0,0l0,0c0,0.005,0,0.01-0.005,0.021c-0.01,0.057-0.015,0.119-0.021,0.176v0.005l0,0
			c0,0.005,0,0.01,0,0.021c0,0.021-0.005,0.037-0.005,0.057v0.005c-0.005,0.052-0.005,0.108-0.011,0.161l0,0
			c0,0.021,0,0.036,0,0.057v0.005l0,0c0,0.005,0,0.01,0,0.021l0,0v8.182l0,0h3.038v-7.571c0-0.171,0.021-0.352,0.062-0.549
			s0.125-0.378,0.254-0.548c0.124-0.171,0.3-0.311,0.528-0.419c0.222-0.114,0.512-0.17,0.864-0.17h1.475
			c0.352,0,0.641,0.057,0.864,0.17c0.223,0.114,0.398,0.254,0.528,0.419c0.124,0.17,0.212,0.352,0.253,0.548
			c0.042,0.197,0.063,0.378,0.063,0.549v7.571h3.038l0,0v-8.182l0,0v-0.021l0,0v-0.005c0-0.021,0-0.036,0-0.057l0,0
			c0-0.052-0.005-0.109-0.01-0.161v-0.005c0-0.02-0.005-0.036-0.005-0.057c0-0.005,0-0.011,0-0.021l0,0v-0.005
			c-0.005-0.057-0.015-0.119-0.021-0.176c0-0.005,0-0.01-0.005-0.021l0,0l0,0c-0.005-0.021-0.005-0.042-0.011-0.062
			c0-0.005,0-0.011-0.005-0.021l0,0c0-0.005-0.004-0.015-0.004-0.021c0-0.005-0.005-0.01-0.005-0.021l0,0
			c0-0.005-0.005-0.01-0.005-0.021l0,0l0,0c-0.005-0.01-0.005-0.025-0.011-0.036l0,0l0,0c0-0.005-0.005-0.01-0.005-0.021l0,0v-0.005
			l-0.005-0.015c0-0.005-0.005-0.011-0.005-0.021l0,0L17.979,26.9l0,0l-0.005-0.021l0,0l-0.005-0.021l0,0l-0.005-0.02l0,0
			c0-0.005-0.005-0.016-0.005-0.021l0,0l-0.005-0.02l0,0c0-0.005-0.005-0.016-0.005-0.021l0,0c0-0.005-0.005-0.016-0.005-0.021l0,0
			l-0.005-0.02l0,0l-0.005-0.021l0,0l-0.005-0.021l0,0c0-0.005-0.005-0.016-0.005-0.021l0,0l-0.005-0.021l0,0l-0.005-0.021l0,0
			c0-0.005-0.005-0.015-0.005-0.021l0,0l-0.005-0.02l0,0c0-0.005-0.005-0.016-0.005-0.021l0,0l-0.005-0.021l0,0l-0.005-0.021
			l-0.005-0.021l0,0c0-0.005-0.005-0.016-0.005-0.021l0,0l-0.005-0.021l0,0c0-0.005-0.005-0.016-0.005-0.021l0,0
			c-0.005-0.005-0.005-0.015-0.01-0.02l0,0c-0.005-0.005-0.005-0.016-0.011-0.021l0,0l-0.01-0.021
			c-0.176-0.43-0.43-0.808-0.761-1.139s-0.729-0.595-1.19-0.802c-0.466-0.202-0.994-0.306-1.583-0.306H14.269z M7.164,27.045
			c0,0.005-0.005,0.016-0.005,0.021L7.164,27.045z"/>
	</g>
	<g>
		<path fill="#88D197" d="M32.035,31.687v-0.62v-2.127v-0.621c0-0.59,0.104-1.118,0.305-1.583c0.202-0.466,0.472-0.859,0.803-1.19
			s0.708-0.584,1.139-0.761l0.021-0.01l0,0c0.005-0.005,0.016-0.005,0.021-0.01l0,0l0.021-0.011l0,0l0.021-0.01l0,0
			c0.005,0,0.016-0.005,0.021-0.005l0,0c0.005-0.005,0.015-0.005,0.021-0.005l0,0c0.005,0,0.016-0.005,0.021-0.005l0.021-0.005l0,0
			l0.021-0.005l0,0l0.021-0.005l0,0l0.021-0.005l0,0c0.005,0,0.016-0.005,0.021-0.005l0,0c0.006,0,0.016-0.005,0.02-0.005l0,0
			l0.021-0.005l0,0c0.006,0,0.016-0.005,0.021-0.005l0,0c0.006,0,0.017-0.005,0.021-0.005l0,0l0.021-0.005l0,0l0.021-0.004l0,0
			c0.005,0,0.016-0.005,0.021-0.005l0,0c0.005,0,0.016-0.005,0.021-0.005l0,0c0.006,0,0.016-0.005,0.021-0.005l0,0l0.021-0.005l0,0
			l0.021-0.005l0,0l0.021-0.005l0,0l0.021-0.005l0,0c0.005,0,0.01-0.005,0.021-0.005l0,0c0.005,0,0.011-0.005,0.021-0.005
			l0.015-0.005h0.006l0,0c0.005,0,0.01-0.005,0.021-0.005l0,0l0,0c0.011-0.005,0.026-0.005,0.036-0.01l0,0l0,0
			c0.006,0,0.011-0.005,0.021-0.005l0,0c0.005,0,0.011-0.005,0.02-0.005c0.005,0,0.016-0.005,0.021-0.005l0,0L35,24.582
			c0.021-0.005,0.042-0.005,0.062-0.01l0,0l0,0c0.005,0,0.011,0,0.021-0.005c0.057-0.01,0.119-0.015,0.176-0.021h0.005l0,0
			c0.005,0,0.011,0,0.021,0c0.021,0,0.036-0.005,0.058-0.005h0.005c0.052-0.005,0.109-0.005,0.16-0.011l0,0c0.021,0,0.036,0,0.058,0
			h0.005l0,0c0.006,0,0.01,0,0.021,0l0,0h6.324v3.038h-5.709c-0.17,0-0.351,0.02-0.548,0.062c-0.196,0.042-0.378,0.124-0.549,0.253
			c-0.17,0.124-0.31,0.3-0.424,0.528c-0.114,0.222-0.171,0.512-0.171,0.864v1.475c0,0.352,0.057,0.641,0.171,0.863
			s0.254,0.398,0.424,0.528c0.171,0.124,0.353,0.212,0.549,0.253c0.197,0.042,0.378,0.063,0.548,0.063h5.709v3.037H35.59l0,0h-0.021
			l0,0h-0.005c-0.021,0-0.036,0-0.058,0l0,0c-0.051,0-0.108-0.005-0.16-0.01h-0.005c-0.021,0-0.036-0.005-0.058-0.005
			c-0.005,0-0.01,0-0.021,0l0,0h-0.005c-0.057-0.005-0.119-0.016-0.176-0.026c-0.006,0-0.011,0-0.021-0.005l0,0l0,0
			c-0.02-0.005-0.04-0.005-0.062-0.011c-0.006,0-0.011,0-0.021-0.005l0,0c-0.006,0-0.017,0-0.021-0.005
			c-0.005,0-0.009-0.006-0.02-0.006l0,0c-0.006,0-0.011-0.004-0.021-0.004l0,0l0,0c-0.01-0.006-0.025-0.006-0.036-0.012l0,0l0,0
			c-0.005,0-0.011-0.004-0.021-0.004l0,0h-0.006l-0.015-0.006c-0.005,0-0.016-0.006-0.021-0.006l0,0l-0.021-0.004l0,0l-0.021-0.006
			l0,0l-0.021-0.005l0,0l-0.021-0.005l0,0c-0.005,0-0.01-0.006-0.021-0.006l0,0l-0.021-0.005l0,0c-0.005,0-0.016-0.005-0.021-0.005
			l0,0c-0.005,0-0.016-0.006-0.021-0.006l0,0l-0.021-0.005l0,0l-0.021-0.005l0,0l-0.021-0.006l0,0c-0.005,0-0.015-0.005-0.021-0.005
			l0,0l-0.021-0.005l0,0l-0.02-0.005l0,0c-0.005,0-0.016-0.005-0.021-0.005l0,0l-0.021-0.006l0,0c-0.005,0-0.016-0.006-0.021-0.006
			l0,0l-0.021-0.005l0,0l-0.021-0.005l-0.021-0.005l0,0c-0.006,0-0.016-0.005-0.021-0.005l0,0l-0.021-0.006l0,0
			c-0.005,0-0.016-0.005-0.021-0.005l0,0c-0.006-0.005-0.016-0.005-0.021-0.011l0,0c-0.005-0.004-0.016-0.004-0.021-0.01l0,0
			l-0.021-0.011c-0.431-0.175-0.808-0.429-1.139-0.761c-0.331-0.331-0.595-0.729-0.803-1.189c-0.201-0.467-0.305-0.988-0.305-1.584
			V31.687z M34.943,24.582c0.006,0,0.015-0.005,0.02-0.005L34.943,24.582z"/>
	</g>
</g>
</svg>
